HIERARCHY
ROOT Hips
{
	OFFSET 0.00000 0.00000 0.00000
	CHANNELS 6 Xposition Yposition Zposition Zrotation Yrotation Xrotation 
	JOINT LHipJoint
	{
		OFFSET 0 0 0
		CHANNELS 3 Zrotation Yrotation Xrotation
		JOINT LeftUpLeg
		{
			OFFSET 1.24777 -1.64261 0.71711
			CHANNELS 3 Zrotation Yrotation Xrotation
			JOINT LeftLeg
			{
				OFFSET 2.49329 -6.85026 0.00000
				CHANNELS 3 Zrotation Yrotation Xrotation
				JOINT LeftFoot
				{
					OFFSET 2.36770 -6.50520 0.00000
					CHANNELS 3 Zrotation Yrotation Xrotation
					JOINT LeftToeBase
					{
						OFFSET 0.14820 -0.40718 2.21395
						CHANNELS 3 Zrotation Yrotation Xrotation
						End Site
						{
							OFFSET 0.00000 -0.00000 1.13491
						}
					}
				}
			}
		}
	}
	JOINT RHipJoint
	{
		OFFSET 0 0 0
		CHANNELS 3 Zrotation Yrotation Xrotation
		JOINT RightUpLeg
		{
			OFFSET -1.18320 -1.64261 0.71711
			CHANNELS 3 Zrotation Yrotation Xrotation
			JOINT RightLeg
			{
				OFFSET -2.46559 -6.77417 0.00000
				CHANNELS 3 Zrotation Yrotation Xrotation
				JOINT RightFoot
				{
					OFFSET -2.38450 -6.55136 0.00000
					CHANNELS 3 Zrotation Yrotation Xrotation
					JOINT RightToeBase
					{
						OFFSET -0.17454 -0.47954 2.02925
						CHANNELS 3 Zrotation Yrotation Xrotation
						End Site
						{
							OFFSET -0.00000 -0.00000 1.05076
						}
					}
				}
			}
		}
	}
	JOINT LowerBack
	{
		OFFSET 0 0 0
		CHANNELS 3 Zrotation Yrotation Xrotation
		JOINT Spine
		{
			OFFSET -0.02305 1.98660 0.00319
			CHANNELS 3 Zrotation Yrotation Xrotation
			JOINT Spine1
			{
				OFFSET -0.00718 1.99033 -0.00533
				CHANNELS 3 Zrotation Yrotation Xrotation
				JOINT Neck
				{
					OFFSET 0 0 0
					CHANNELS 3 Zrotation Yrotation Xrotation
					JOINT Neck1
					{
						OFFSET 0.00095 1.61015 0.10698
						CHANNELS 3 Zrotation Yrotation Xrotation
						JOINT Head
						{
							OFFSET -0.01060 1.59924 0.01317
							CHANNELS 3 Zrotation Yrotation Xrotation
							End Site
							{
								OFFSET -0.00458 1.63304 -0.00592
							}
						}
					}
				}
				JOINT LeftShoulder
				{
					OFFSET 0 0 0
					CHANNELS 3 Zrotation Yrotation Xrotation
					JOINT LeftArm
					{
						OFFSET 3.05381 1.47088 -0.01697
						CHANNELS 3 Zrotation Yrotation Xrotation
						JOINT LeftForeArm
						{
							OFFSET 4.25106 -0.00000 0.00000
							CHANNELS 3 Zrotation Yrotation Xrotation
							JOINT LeftHand
							{
								OFFSET 3.27592 -0.00000 0.00000
								CHANNELS 3 Zrotation Yrotation Xrotation
								JOINT LeftFingerBase
								{
									OFFSET 0 0 0
									CHANNELS 3 Zrotation Yrotation Xrotation
									JOINT LeftHandIndex1
									{
										OFFSET 0.65781 -0.00000 0.00000
										CHANNELS 3 Zrotation Yrotation Xrotation
										End Site
										{
											OFFSET 0.53034 -0.00000 0.00000
										}
									}
								}
								JOINT LThumb
								{
									OFFSET 0 0 0
									CHANNELS 3 Zrotation Yrotation Xrotation
									End Site
									{
										OFFSET 0.53844 -0.00000 0.53844
									}
								}
							}
						}
					}
				}
				JOINT RightShoulder
				{
					OFFSET 0 0 0
					CHANNELS 3 Zrotation Yrotation Xrotation
					JOINT RightArm
					{
						OFFSET -2.83695 1.31619 -0.22674
						CHANNELS 3 Zrotation Yrotation Xrotation
						JOINT RightForeArm
						{
							OFFSET -4.46073 -0.00000 0.00000
							CHANNELS 3 Zrotation Yrotation Xrotation
							JOINT RightHand
							{
								OFFSET -3.44416 -0.00000 0.00000
								CHANNELS 3 Zrotation Yrotation Xrotation
								JOINT RightFingerBase
								{
									OFFSET 0 0 0
									CHANNELS 3 Zrotation Yrotation Xrotation
									JOINT RightHandIndex1
									{
										OFFSET -0.61651 -0.00000 0.00000
										CHANNELS 3 Zrotation Yrotation Xrotation
										End Site
										{
											OFFSET -0.49705 -0.00000 0.00000
										}
									}
								}
								JOINT RThumb
								{
									OFFSET 0 0 0
									CHANNELS 3 Zrotation Yrotation Xrotation
									End Site
									{
										OFFSET -0.50464 -0.00000 0.50464
									}
								}
							}
						}
					}
				}
			}
		}
	}
}
MOTION
Frames: 8
Frame Time: .0083333
18.5724 16.8276 -17.9731 0 0 0 0 0 0 -21 0 0 0 0 0 0 0 0 0 0 0 0 0 0 21 0 0 0 0 0 0 0 0 0 0 0 0 0 0 0 0 0 0 0 0 0 0 -16 0 0 21 0 0 11 0 0 0 -8 0 0 0 0 0 0 0 0 0 0 0 0 0 0 0 0 0 0 0 0 8 0 0 0 0 0 0 0 0 0 0 0 0 0 0 0 0 0
18.5724 16.8276 -17.9731 -1.0407 -2.1717 5.9522 0.0000 0.0000 0.0000 -20.2942 -2.7341 -19.8791 3.4156 11.3393 33.4329 4.7065 -10.7682 -39.5905 5.1896 13.5942 41.6355 0.0000 0.0000 0.0000 23.0790 8.6446 -13.8076 -2.9454 -10.6062 30.9630 -2.6613 -4.8538 -32.8191 -1.0981 -6.6588 18.7084 -4.1475 1.9692 -2.9756 2.9209 2.7283 -1.3231 5.4222 1.4011 -0.0334 2.0963 -1.7008 -10.8780 -2.9604 -2.4014 1.3277 -1.4441 -1.2779 2.2473 0.0000 -0.0000 0.0000 -85.8635 14.6479 62.6651 36.3566 -45.7569 -15.7774 -0.0000 0.0000 -14.3711 -26.0960 16.1070 -7.7384 -7.1250 0.0000 -0.0000 -45.3584 41.2484 5.5569 0.0000 -0.0000 0.0000 83.5241 -24.3437 40.0151 -33.8442 43.9690 -14.0048 0.0000 0.0000 23.0761 -10.2069 -25.8264 4.4851 7.1250 -0.0000 -0.0000 20.8060 -54.9322 -5.2434
18.5687 16.8282 -17.9786 -0.9981 -2.0866 5.9745 0.0000 0.0000 0.0000 -20.3149 -2.6799 -19.9532 3.4136 11.3363 33.4227 4.6153 -10.8816 -39.1756 5.1460 13.5463 41.4496 0.0000 0.0000 0.0000 23.0635 8.8126 -13.7966 -2.9523 -10.6175 31.0003 -2.6455 -5.1018 -32.8453 -1.0898 -6.6343 18.6363 -4.1221 1.9423 -2.9213 2.9319 2.6898 -1.3156 5.4165 1.3820 -0.0505 2.1505 -1.2280 -10.9292 -3.2453 -1.7628 1.5490 -1.5190 -0.9699 2.3487 -0.0000 0.0000 0.0000 -85.5542 14.8522 62.9757 37.3549 -46.4223 -16.4967 -0.0000 0.0000 -14.4774 -26.3952 15.7387 -7.6672 -7.1250 0.0000 -0.0000 -45.3253 40.9082 6.0720 -0.0000 0.0000 0.0000 83.0002 -25.0432 40.6346 -36.1801 45.6366 -15.6511 0.0000 0.0000 24.3871 -9.9916 -25.8740 4.3963 7.1250 -0.0000 -0.0000 21.0467 -54.9354 -5.3098
18.5682 16.8274 -17.9855 -0.9707 -2.1556 6.0147 0.0000 0.0000 0.0000 -20.3306 -2.6500 -20.0798 3.4321 11.3636 33.5163 4.5427 -10.8643 -38.8481 5.1293 13.5279 41.3782 0.0000 0.0000 0.0000 23.0367 8.9920 -13.7507 -2.9306 -10.5818 30.8823 -2.6152 -5.2230 -32.7301 -1.0765 -6.5952 18.5215 -4.0345 1.9794 -2.8780 2.9292 2.7358 -1.3091 5.3629 1.4050 -0.0693 2.3174 -0.7101 -10.8911 -3.6242 -1.0744 1.6593 -1.6387 -0.6389 2.4008 0.0000 0.0000 0.0000 -85.2006 15.0728 63.3560 38.4928 -47.1511 -17.3260 -0.0000 0.0000 -14.6326 -26.7902 15.8274 -7.8410 -7.1250 0.0000 -0.0000 -45.6255 40.9211 6.1212 0.0000 0.0000 0.0000 82.5287 -25.6565 41.1090 -38.4972 47.1539 -17.3292 0.0000 0.0000 25.7241 -6.3999 -25.9833 2.8133 7.1250 -0.0000 -0.0000 24.6125 -54.3598 -5.9332
18.5672 16.8497 -17.9900 -0.9197 -2.1663 6.0648 0.0000 0.0000 0.0000 -20.3573 -2.6027 -20.3862 3.4464 11.3848 33.5890 4.4036 -10.7068 -38.2186 4.9965 13.3799 40.8076 0.0000 0.0000 0.0000 22.9804 9.0946 -13.7393 -2.9196 -10.5638 30.8224 -2.6100 -5.3251 -32.7498 -1.0727 -6.5837 18.4879 -3.9877 2.0299 -2.8526 2.9315 2.8013 -1.3106 5.3387 1.4382 -0.0909 2.5317 -0.1692 -10.7905 -4.0851 -0.3565 1.7219 -1.7914 -0.2949 2.4314 0.0000 0.0000 0.0000 -84.8572 15.2646 63.8196 39.6084 -47.8362 -18.1485 -0.0000 0.0000 -14.7746 -26.9554 15.8196 -7.8929 -7.1250 0.0000 -0.0000 -45.7233 40.8901 6.1922 0.0000 0.0000 0.0000 82.0966 -26.2719 41.4496 -40.6223 48.4343 -18.9036 0.0000 0.0000 27.7307 -6.4653 -25.3089 2.7735 7.1250 -0.0000 -0.0000 24.1283 -53.7603 -5.4425
18.5681 16.8371 -18.0016 -0.9007 -2.1092 6.1317 0.0000 0.0000 0.0000 -20.3604 -2.6823 -20.4202 3.4552 11.3978 33.6337 4.3242 -10.7794 -37.8493 4.9980 13.3815 40.8138 0.0000 0.0000 0.0000 22.9488 9.2129 -13.8356 -2.9221 -10.5679 30.8360 -2.5830 -5.4756 -32.6679 -1.0756 -6.5926 18.5139 -3.8639 2.0777 -2.8158 2.9485 2.8611 -1.3368 5.2848 1.4694 -0.1404 2.7208 0.5096 -10.4743 -4.5359 0.5495 1.6621 -1.9236 0.1460 2.3939 -0.0000 -0.0000 0.0000 -84.4697 15.4754 64.4327 40.7159 -48.4884 -18.9736 -0.0000 0.0000 -14.8546 -27.4966 16.4749 -8.3967 -7.1250 0.0000 -0.0000 -46.4606 41.3343 5.6546 -0.0000 -0.0000 0.0000 81.7971 -26.7052 41.3487 -42.7569 49.6211 -20.5154 0.0000 0.0000 27.9893 -4.8947 -24.3881 2.0252 7.1250 -0.0000 -0.0000 25.0656 -52.6491 -4.9704
18.5682 16.8384 -18.0111 -0.8705 -2.0708 6.1897 0.0000 0.0000 0.0000 -20.3704 -2.6996 -20.5857 3.4719 11.4224 33.7181 4.2196 -10.7787 -37.3620 4.9454 13.3221 40.5864 0.0000 0.0000 0.0000 22.9101 9.3373 -13.8837 -2.9193 -10.5632 30.8205 -2.5632 -5.6249 -32.6277 -1.0702 -6.5764 18.4665 -3.7656 2.1226 -2.7688 2.9601 2.9174 -1.3539 5.2393 1.4988 -0.1866 2.9056 1.1192 -10.2643 -4.9737 1.3656 1.7015 -2.0591 0.5416 2.4118 0.0000 -0.0000 0.0000 -84.1127 15.6565 64.9569 41.8389 -49.1224 -19.8187 -0.0000 0.0000 -14.9269 -27.9675 16.8837 -8.7667 -7.1250 0.0000 -0.0000 -47.0072 41.5887 5.3577 0.0000 -0.0000 0.0000 81.4403 -27.2082 41.4772 -45.0432 50.7896 -22.2722 0.0000 0.0000 28.7615 -3.6803 -23.7710 1.4852 7.1250 -0.0000 -0.0000 25.8400 -51.8881 -4.6397
18.5688 16.8390 -18.0220 -0.8438 -2.0237 6.2602 0.0000 0.0000 0.0000 -20.3789 -2.7163 -20.7540 3.4807 11.4353 33.7626 4.1008 -10.7683 -36.8031 4.8890 13.2577 40.3408 0.0000 0.0000 0.0000 22.8633 9.4762 -14.0133 -2.9401 -10.5974 30.9339 -2.5551 -5.7623 -32.6493 -1.0613 -6.5497 18.3881 -3.6541 2.1779 -2.7198 2.9744 2.9875 -1.3793 5.1891 1.5353 -0.2434 3.0976 1.7507 -10.0128 -5.4251 2.2131 1.7361 -2.1996 0.9535 2.4283 0.0000 -0.0000 0.0000 -83.7607 15.8085 65.5211 42.9350 -49.7158 -20.6512 -0.0000 0.0000 -14.9593 -28.4683 17.4096 -9.2153 -7.1250 0.0000 -0.0000 -47.6511 41.9291 4.9234 0.0000 -0.0000 0.0000 81.1240 -27.6636 41.5380 -47.2989 51.8463 -24.0333 0.0000 0.0000 29.1842 -2.4968 -23.1563 0.9824 7.1250 -0.0000 -0.0000 26.5801 -51.1443 -4.2809
